<svg width="116" height="116" viewBox="0 0 116 116" fill="none" xmlns="http://www.w3.org/2000/svg">
<g clip-path="url(#clip0_14506_23157)">
<path d="M87 116H29C12.9839 116 0 103.016 0 87V29C0 12.9839 12.9839 0 29 0H87C103.016 0 116 12.9839 116 29V87C116 103.016 103.016 116 87 116Z" fill="url(#paint0_linear_14506_23157)"/>
<path d="M30.914 78.8374H26.339L22.2952 85.9644H22.2198L18.2016 78.8374H13.601L20.249 90.1729V96.9589H24.1918V90.3365L30.914 78.8374Z" fill="white"/>
<path d="M36.8509 84.1967C31.9371 82.9323 27.5918 87.2765 28.8573 92.1903C29.4269 94.4047 31.1901 96.1679 33.4045 96.7375C38.3183 98.0019 42.6636 93.6577 41.3981 88.7439C40.8285 86.5295 39.0653 84.7663 36.8509 84.1967ZM36.3509 93.5138C33.6179 94.5126 31.0834 91.978 32.0821 89.245C32.3884 88.4052 33.0658 87.7289 33.9056 87.4215C36.6386 86.4227 39.1732 88.9573 38.1744 91.6903C37.867 92.5301 37.1907 93.2064 36.3509 93.5138Z" fill="white"/>
<path d="M52.0016 84.1967C47.0879 82.9323 42.7425 87.2765 44.0081 92.1903C44.5776 94.4047 46.3408 96.1679 48.5553 96.7375C53.469 98.0019 57.8144 93.6577 56.5488 88.7439C55.9793 86.5295 54.2161 84.7663 52.0016 84.1967ZM51.5017 93.5138C48.7687 94.5126 46.2341 91.978 47.2329 89.245C47.5391 88.4052 48.2165 87.7289 49.0564 87.4215C51.7893 86.4227 54.3239 88.9573 53.3252 91.6903C53.0178 92.5301 52.3415 93.2064 51.5017 93.5138Z" fill="white"/>
<path d="M70.3668 93.6738H62.444V78.8374H58.9373V93.6738V96.9589H62.444H70.3668V93.6738Z" fill="white"/>
<path d="M86.659 82.0636C87.4199 82.0636 88.109 82.1831 88.7273 82.4197L89.0126 79.2808C87.848 79.0198 86.9316 78.8887 86.2669 78.8887C84.6893 78.8887 83.4052 79.3283 82.4145 80.2088C81.4239 81.088 80.9286 82.2341 80.9286 83.6447V84.7142H78.2072V87.7337H80.9297V96.9591H84.4364V87.7337H89.0138V84.7142H84.4364V84.2746C84.4434 82.8002 85.1846 82.0636 86.659 82.0636Z" fill="white"/>
<path d="M100.649 85.7589C99.4758 84.5607 97.9144 83.9609 95.9645 83.9609C94.0458 83.9609 92.4671 84.5723 91.227 85.7949C89.9858 87.0175 89.3664 88.5766 89.3664 90.472C89.3664 92.3999 90.0473 93.9625 91.4115 95.1607C92.7745 96.359 94.6177 96.9587 96.94 96.9587C98.7543 96.9506 100.289 96.5562 101.541 95.7755L100.875 92.6934C99.7577 93.3465 98.4538 93.6736 96.9644 93.6736C94.8799 93.6736 93.5876 92.973 93.0888 91.5705H102.338C102.338 91.4754 102.346 91.342 102.362 91.1703C102.377 90.9987 102.39 90.856 102.398 90.74C102.406 90.6251 102.409 90.5347 102.409 90.4709C102.408 88.5279 101.821 86.9572 100.649 85.7589ZM93.0401 89.3967C93.2385 88.7436 93.5923 88.2263 94.1038 87.8435C94.6154 87.4607 95.2429 87.2704 95.9888 87.2704C96.7811 87.2704 97.4527 87.4653 98.0037 87.8562C98.5547 88.2471 98.8459 88.7599 98.8772 89.3979H93.0401V89.3967Z" fill="white"/>
<path d="M76.0403 83.9609H72.5336V96.9599H76.0403V83.9609Z" fill="white"/>
<path d="M74.2934 83.2118C74.9418 83.2118 75.48 82.9763 75.9116 82.5065C76.2897 82.0935 76.4904 81.5356 76.4811 80.9753C76.4707 80.379 76.2642 79.8756 75.8628 79.4673C75.451 79.0474 74.9279 78.8374 74.2934 78.8374C73.6588 78.8374 73.1345 79.0474 72.7181 79.4673C72.3132 79.8756 72.1056 80.3779 72.094 80.9741C72.0836 81.5356 72.2889 82.0958 72.6705 82.5076C73.1044 82.9774 73.6461 83.2118 74.2934 83.2118Z" fill="white"/>
<path d="M61.7932 53.1536C64.5239 47.1274 63.5112 39.8067 58.754 34.7409L69.8622 23.6328C72.8271 20.6667 76.7711 19.0322 80.9657 19.0322C84.9816 19.0322 88.7667 20.5298 91.6853 23.2616L61.7932 53.1536Z" fill="white"/>
<path d="M50.3161 64.6307C50.6954 63.7955 51.0075 62.9278 51.2441 62.0369C52.7788 56.2926 51.1339 50.1063 46.9509 45.8885C46.9359 45.8711 46.9185 45.8537 46.9022 45.8375C46.8871 45.8224 46.8686 45.805 46.8523 45.7899L24.324 23.2616C27.2425 20.5298 31.0288 19.0322 35.0435 19.0322C39.2369 19.0322 43.1798 20.6655 46.1459 23.6328L46.3025 23.7894H46.3048L57.6287 35.1133C63.7512 41.2358 63.7512 51.1967 57.6287 57.3192L50.3161 64.6307Z" fill="white"/>
<path d="M35.0424 73.399C31.0277 73.399 27.2414 71.9015 24.3229 69.1697L46.516 46.9766C50.1932 50.9136 51.6096 56.5326 50.2118 61.7608C49.5169 64.3661 48.147 66.7615 46.2457 68.6976L46.1436 68.7973C43.1787 71.7658 39.2358 73.399 35.0424 73.399Z" fill="white"/>
<path d="M24.9099 46.2076L35.1353 40.4609L45.1994 46.2528L35.1387 52.0389L24.9099 46.2076Z" fill="white"/>
</g>
<defs>
<linearGradient id="paint0_linear_14506_23157" x1="8.4939" y1="8.4939" x2="107.506" y2="107.506" gradientUnits="userSpaceOnUse">
<stop stop-color="#195658"/>
<stop offset="0.2703" stop-color="#1B5B5B"/>
<stop offset="0.5991" stop-color="#1F6A62"/>
<stop offset="0.957" stop-color="#26836F"/>
<stop offset="1" stop-color="#278671"/>
</linearGradient>
<clipPath id="clip0_14506_23157">
<rect width="116" height="116" fill="white"/>
</clipPath>
</defs>
</svg>
