<svg xmlns="http://www.w3.org/2000/svg" width="48" height="40" viewBox="0 0 48 40" fill="none">
  <path d="M25.8772 18.1199C27.3266 14.9222 26.7893 11.0336 24.2637 8.34385L30.1614 2.44612C31.7369 0.87063 33.8289 0.00341797 36.0557 0.00341797C38.2824 0.00341797 40.1983 0.798074 41.7461 2.24919L25.8772 18.1216V18.1199Z" fill="white"/>
  <path d="M19.7835 24.2111C19.9839 23.7689 20.1498 23.3076 20.2776 22.8343C21.0913 19.7852 20.2171 16.4995 17.9973 14.2606C17.9886 14.252 17.9817 14.2416 17.9731 14.233C17.9645 14.2243 17.9575 14.2174 17.9455 14.2088L5.98242 2.24577C7.532 0.796384 9.5411 0 11.6729 0C13.8046 0 15.9916 0.86894 17.5671 2.4427L17.6518 2.52735L23.6652 8.54083C26.9147 11.7903 26.9147 17.0799 23.6652 20.3311L19.7835 24.2076V24.2111Z" fill="white"/>
  <path d="M11.6748 28.8685C9.54305 28.8685 7.53395 28.0738 5.98438 26.6227L17.7677 14.8394C19.7198 16.9296 20.4713 19.9131 19.7302 22.6892C19.3605 24.0746 18.6332 25.3444 17.6226 26.374L17.5691 26.4275C15.997 27.9996 13.9016 28.8685 11.6748 28.8685Z" fill="white"/>
  <path d="M6.29492 14.43L11.7228 11.3774L17.0677 14.4541L11.7245 17.5257L6.29492 14.43Z" fill="white"/>
  <path d="M20.1813 35.274C21.0468 35.4605 21.6912 35.711 22.1092 36.0341C22.5273 36.3571 22.7363 36.8045 22.7363 37.3833C22.7363 38.0535 22.4772 38.5649 21.9607 38.9277C21.4441 39.2887 20.76 39.4684 19.9118 39.4684C19.435 39.4684 18.9168 39.3837 18.3623 39.211C17.8077 39.0399 17.3465 38.8344 16.9785 38.5977L17.5296 37.4455C18.2551 37.9343 19.0584 38.1779 19.9395 38.1745C20.2884 38.1745 20.5804 38.1123 20.8222 37.9896C21.0624 37.867 21.1833 37.6942 21.1833 37.4731C21.1833 37.2813 21.0745 37.119 20.8568 36.9859C20.6391 36.8529 20.2625 36.7285 19.7304 36.6111C18.8822 36.4262 18.2448 36.1688 17.8164 35.8406C17.3879 35.5124 17.1755 35.0442 17.1755 34.4327C17.1755 33.8211 17.4415 33.3391 17.9718 32.9833C18.5022 32.6274 19.1966 32.4478 20.0535 32.4478C20.4836 32.4478 20.9103 32.5099 21.3388 32.6326C21.7672 32.7552 22.1179 32.9004 22.3925 33.0662L21.9779 34.2996C21.3543 33.9386 20.6944 33.7589 20.0017 33.7589C19.5784 33.7589 19.2571 33.8246 19.0394 33.9507C18.8218 34.0803 18.7129 34.2375 18.7129 34.4258C18.7129 34.6141 18.8252 34.7782 19.0498 34.9112C19.2692 35.0442 19.6475 35.1651 20.1831 35.274H20.1813Z" fill="white"/>
  <path d="M26.1833 38.2297C26.5201 38.2297 26.7931 38.1847 27.0073 38.0915L27.1317 39.3128C26.6773 39.413 26.3111 39.4648 26.0313 39.4648C25.418 39.4648 24.9256 39.2973 24.5577 38.9569C24.1897 38.6184 24.0049 38.1709 24.0049 37.6129V35.7299H22.9355V34.5639H24.0222L24.3089 33.1611H25.3592V34.5639H27.1213V35.7299H25.3592V37.3676C25.3592 37.9412 25.6322 38.2297 26.1833 38.2297Z" fill="white"/>
  <path d="M31.8421 36.9478V34.4395H33.2432V39.4631H32.4831L32.0374 38.4145H32.0097C31.818 38.7427 31.5606 39.0001 31.2392 39.1884C30.9179 39.375 30.5655 39.4682 30.1837 39.4682C29.5532 39.4682 29.0367 39.2368 28.6342 38.7738C28.2316 38.3108 28.0312 37.7183 28.0312 36.9944V34.4395H29.4323V36.9374C29.4323 37.2968 29.5463 37.5887 29.776 37.8185C30.0058 38.0482 30.2943 38.1622 30.6467 38.1622C30.9991 38.1622 31.2772 38.05 31.5036 37.8237C31.7247 37.5956 31.8404 37.3054 31.8404 36.9461L31.8421 36.9478Z" fill="white"/>
  <path d="M36.2971 34.4326C36.9363 34.4326 37.4701 34.6814 37.9002 35.1841H37.9279V32.4529H39.2943V39.4666H38.5428L38.1162 38.4577H38.0885C37.895 38.7721 37.6411 39.0209 37.3319 39.2005C37.0209 39.3802 36.6806 39.4718 36.3057 39.4718C35.6717 39.4718 35.1483 39.2368 34.7354 38.7669C34.3208 38.2953 34.1152 37.6942 34.1152 36.9582C34.1152 36.2223 34.3208 35.6211 34.732 35.1495C35.1414 34.6762 35.6631 34.4378 36.2971 34.4326ZM35.8462 37.8462C36.076 38.0794 36.3645 38.1969 36.7134 38.1969C37.0624 38.1969 37.3509 38.0794 37.5806 37.8462C37.8104 37.613 37.9244 37.3158 37.9244 36.9548C37.9244 36.5937 37.8104 36.2966 37.5806 36.0634C37.3509 35.8302 37.0624 35.7127 36.7134 35.7127C36.3645 35.7127 36.076 35.8302 35.8462 36.0634C35.6164 36.2966 35.5024 36.5937 35.5024 36.9548C35.5007 37.3158 35.6164 37.613 35.8462 37.8462Z" fill="white"/>
  <path d="M6.70448 32.4512H4.93378L3.36692 35.2135H3.33756L1.78107 32.4512H0L2.574 36.8408V39.4683H4.10112V36.9047L6.70448 32.4512Z" fill="white"/>
  <path d="M9.00361 34.5275C7.09989 34.0386 5.41901 35.7195 5.9079 37.6232C6.1273 38.4801 6.81139 39.1642 7.66824 39.3836C9.57196 39.8725 11.2528 38.1916 10.7639 36.2879C10.5428 35.431 9.86045 34.7469 9.00361 34.5275ZM8.81012 38.1346C7.75289 38.5215 6.76993 37.5403 7.15689 36.4813C7.27609 36.1566 7.53695 35.8923 7.86172 35.7765C8.91896 35.3896 9.90191 36.3708 9.51495 37.4298C9.39575 37.7545 9.1349 38.0154 8.81012 38.1346Z" fill="white"/>
  <path d="M14.8708 34.5275C12.9671 34.0386 11.2862 35.7195 11.7751 37.6232C11.9945 38.4801 12.6786 39.1642 13.5354 39.3836C15.4391 39.8725 17.12 38.1916 16.6311 36.2879C16.41 35.431 15.7276 34.7469 14.8708 34.5275ZM14.6773 38.1346C13.6201 38.5215 12.6371 37.5403 13.0241 36.4813C13.1433 36.1566 13.4041 35.8923 13.7289 35.7765C14.7861 35.3896 15.7691 36.3708 15.3821 37.4298C15.2629 37.7545 15.0021 38.0154 14.6773 38.1346Z" fill="white"/>
  <path d="M45.8845 34.5275C43.9807 34.0386 42.2999 35.7195 42.7888 37.6232C43.0082 38.4801 43.6923 39.1642 44.5491 39.3836C46.4528 39.8725 48.1337 38.1916 47.6448 36.2879C47.4254 35.431 46.7413 34.7469 45.8845 34.5275ZM45.691 38.1346C44.6337 38.5215 43.6508 37.5403 44.0377 36.4813C44.1569 36.1566 44.4178 35.8923 44.7426 35.7765C45.7998 35.3896 46.7828 36.3708 46.3958 37.4298C46.2783 37.7545 46.0175 38.0154 45.691 38.1346Z" fill="white"/>
  <path d="M41.7482 34.436H40.3887V39.4683H41.7482V34.436Z" fill="white"/>
  <path d="M41.0701 34.1458C41.3223 34.1458 41.5296 34.0543 41.6954 33.8729C41.8423 33.7122 41.92 33.4963 41.9148 33.2804C41.9114 33.0489 41.8319 32.8537 41.6747 32.6965C41.514 32.5341 41.3119 32.4529 41.0666 32.4529C40.8213 32.4529 40.6175 32.5341 40.4568 32.6965C40.2996 32.8554 40.2184 33.0489 40.215 33.2786C40.2115 33.4963 40.291 33.7122 40.4395 33.8729C40.6071 34.0577 40.8179 34.1458 41.0701 34.1458Z" fill="white"/>
</svg>